PSF_ID_stride1.mot
nRows=11
nColumns=38

name PSF_ID_stride1.mot
datacolumns 38
datarows 11
range 0.5080190000 0.5721410000
endheader
time	pelvis_tilt_moment	pelvis_list_moment	pelvis_rotation_moment	pelvis_tx_force	pelvis_ty_force	pelvis_tz_force	hip_flexion_r_moment	hip_adduction_r_moment	hip_rotation_r_moment	knee_angle_r_moment	ankle_angle_r_moment	subtalar_angle_r_moment	mtp_angle_r_moment	hip_flexion_l_moment	hip_adduction_l_moment	hip_rotation_l_moment	knee_angle_l_moment	ankle_angle_l_moment	subtalar_angle_l_moment	mtp_angle_l_moment	lumbar_extension_moment	lumbar_bending_moment	lumbar_rotation_moment	arm_flex_r_moment	arm_add_r_moment	arm_rot_r_moment	elbow_flex_r_moment	pro_sup_r_moment	wrist_flex_r_moment	wrist_dev_r_moment	arm_flex_l_moment	arm_add_l_moment	arm_rot_l_moment	elbow_flex_l_moment	pro_sup_l_moment	wrist_flex_l_moment	wrist_dev_l_moment
        0.5080190000	       12.9894953674	       -1.4226329060	       39.3921966391	       -9.5494321691	      -73.5276732806	      -57.4125970784	      -12.0104983794	       -3.9795081269	        0.9320977180	        1.3366837368	        2.2939107967	       -0.4904830109	        0.1240424763	       -3.0892590065	      -43.0216366208	      -15.5485769645	        7.8805730795	     -194.6613558787	       22.5107123517	       -0.0336404099	       27.8849280883	        9.7821458880	       41.9127294908	        7.2930825002	        5.5356176325	        4.4365109475	        5.2843616717	        0.0288724968	        0.5813099834	       -0.3372009169	       -0.8593761106	       -1.7718947431	       -3.3154858110	        4.9925827011	       -0.2094287185	       -0.2883240564	       -0.5066231151	
        0.5140460000	       16.2736006494	      -16.9743589796	       41.4448607320	       26.7097606551	      -77.4053957103	      -52.8563139530	      -14.3295933391	       -4.9592563622	        1.4945700030	        0.7544936750	        2.3497613910	       -0.5512385012	        0.1226363415	       -4.6133959024	      -29.8525832558	      -18.4715231232	       -2.0755808438	     -179.3968018742	       21.5874097676	       -0.0415999865	       16.4169459468	       11.1345654425	       41.8749823549	        7.2224228885	        4.9807203636	        4.1763792762	        4.6669873111	        0.0360323943	        0.5464989346	       -0.2835089444	       -1.0782380423	       -1.7299520557	       -3.2597065621	        4.2854211346	       -0.1966645858	       -0.3009045054	       -0.4417579557	
        0.5201262000	       16.1656101816	      -14.2803216370	       39.6264719007	       45.1011815925	      -75.6704100658	      -47.8563557794	      -16.7462348605	       -5.2173296217	        1.7473371773	        0.1428464696	        2.4227963060	       -0.6011662392	        0.1239573453	        6.3447518263	      -20.5767282201	      -17.0323532176	       -3.2850743852	     -160.6692742493	       21.4225022505	       -0.0504479881	        9.4018940977	       11.4716074518	       40.3312173965	        6.8608374201	        4.3912047563	        3.8371240008	        4.0881396456	        0.0394115961	        0.5026477523	       -0.2380409833	       -1.2612291801	       -1.6071519194	       -3.0816336440	        3.6498080242	       -0.1804245487	       -0.2965790469	       -0.3818213212	
        0.5260671000	       10.3735687608	        1.1874791585	       32.8135194030	       41.6505986101	      -62.7136459783	      -47.5513127898	      -18.6497818689	       -4.5719119963	        1.6325985478	       -0.4205132844	        2.5186985313	       -0.6384172599	        0.1279984697	       25.2687971991	      -18.1797820358	      -10.6642071071	        1.2916930856	     -139.4092002994	       21.0481337664	       -0.0584681759	        6.1279334330	       10.2077132393	       38.0640413047	        6.3717651278	        3.8802017899	        3.5036444291	        3.5993528009	        0.0407590167	        0.4596389583	       -0.2029806733	       -1.4078828651	       -1.4890641115	       -2.8678666580	        3.1213243524	       -0.1643192972	       -0.2840597599	       -0.3319727660	
        0.5341246000	       -1.4733322123	       18.5111078784	       22.1532584897	       16.8757273121	      -24.8989652472	      -51.0029788915	      -20.1913712269	       -2.9166222216	        1.1653953843	       -1.0484865066	        2.6856410686	       -0.6847654745	        0.1365643802	       44.2977000771	      -20.9963758179	       -1.7843948064	        5.4639618295	     -109.2616796857	       18.1333757099	       -0.0637610556	        4.5540576257	        5.8716488533	       34.7787510015	        5.7182554019	        3.3186209991	        3.0988368482	        3.0658464156	        0.0417243042	        0.4077347307	       -0.1677841678	       -1.5741980950	       -1.3638742087	       -2.5859459991	        2.5188671343	       -0.1447891358	       -0.2640142979	       -0.2766152448	
        0.5400006000	       -5.6632399229	       18.1106447537	       19.2532262721	        0.5368708276	        5.4363160328	      -52.2517379340	      -21.0325384784	       -1.8600012063	        0.8727881535	       -1.4003074860	        2.8157935275	       -0.7269309081	        0.1432842969	       45.2400465628	      -20.1042324574	       -0.5615301520	        2.1328711862	      -90.5458342197	       15.1664245656	       -0.0594391708	        3.5888824320	        1.3015177183	       32.5942719423	        5.2960900858	        2.9408711149	        2.8252051424	        2.7227150863	        0.0429525762	        0.3735132172	       -0.1455156182	       -1.7311625477	       -1.2602801340	       -2.3833135476	        2.0922104134	       -0.1316035279	       -0.2499425366	       -0.2383996241	
        0.5460086000	       -2.3270214283	       12.3200487643	       21.0213603856	       -4.4689497346	       21.8472846691	      -52.3021537796	      -22.4031755947	       -1.2335657377	        0.7489443570	       -1.7060199202	        2.9324825911	       -0.7804407859	        0.1488961213	       41.1806048624	      -12.7181125494	       -3.1832724548	       -3.5148558181	      -75.2930625905	       13.1170865050	       -0.0444137304	        1.8035619827	       -3.8401886768	       30.5322856274	        4.8371376858	        2.4947446407	        2.5300405864	        2.3310014515	        0.0454259316	        0.3373770540	       -0.1183881434	       -2.0071378410	       -1.0945547121	       -2.1458622403	        1.5829711847	       -0.1167442554	       -0.2352284101	       -0.1924846444	
        0.5521156000	        6.3259798717	       12.9978939080	       23.4930667461	        2.5245319624	       11.0910727522	      -51.4148954322	      -25.0147305676	       -0.7425817947	        0.7371865273	       -2.0627345312	        3.0115934617	       -0.8384247818	        0.1521263530	       43.2707587987	       -0.8905631173	       -5.1984641085	       -4.5765551641	      -60.7024045594	       11.9611785751	       -0.0158636606	       -0.9803174408	       -8.7296650465	       28.3694222599	        4.2106202263	        1.9154365840	        2.1833290476	        1.8075902323	        0.0496203499	        0.2947291405	       -0.0795315058	       -2.4742029176	       -0.8382120859	       -1.8394857223	        0.9229017449	       -0.0976409218	       -0.2177491576	       -0.1314572908	
        0.5581603000	       13.9999519023	       23.0950653726	       22.8975552645	       13.9311954561	      -30.7136393273	      -45.1425247890	      -28.8701290204	        0.4408601767	        0.6456840519	       -2.6364701120	        3.0475980079	       -0.8885039487	        0.1528416853	       53.5805810302	        9.8092176303	       -3.6366862479	        0.6923421191	      -45.0981923918	       10.4095804882	        0.0263327253	       -4.4218500903	      -12.4428554568	       25.8457952131	        3.3176587013	        1.1992071777	        1.7787912990	        1.1124924572	        0.0553462764	        0.2434351194	       -0.0259645062	       -3.1339154327	       -0.5028077395	       -1.4544410788	        0.1043924555	       -0.0731051189	       -0.1958816610	       -0.0536304690	
        0.5661352000	       15.1589766661	       32.4847991378	       18.6148078463	       21.6135157470	     -121.8026931073	      -15.9502607407	      -35.0069096757	        4.6025355432	        0.1409706576	       -4.2635290492	        3.0596484370	       -0.9320367256	        0.1517787748	       61.6260032169	       17.9821129619	        0.9392130763	        5.9347127508	      -27.3945678514	        7.4116060954	        0.1008770804	       -9.4913671267	      -14.4626325742	       21.5723598595	        1.6873128182	        0.0923360927	        1.1611015070	       -0.0533712331	        0.0637554743	        0.1616239847	        0.0652321787	       -4.1895885722	        0.0187782860	       -0.8343689492	       -1.1540621029	       -0.0326671524	       -0.1583240127	        0.0700714975	
        0.5721410000	        8.4945255769	       23.7958248255	       16.4104937449	       18.0529911130	     -193.2549228493	       21.9232292286	      -39.9005583184	       10.1710958923	       -0.4789330907	       -6.7951201288	        3.0655475120	       -0.9503236642	        0.1510575114	       52.9689299487	       21.3681559253	        2.4526296582	        1.6634946327	      -19.5718359202	        5.6895866012	        0.1662960990	      -13.6393573424	      -13.1696478385	       17.6916213802	        0.2497485712	       -0.7788899920	        0.6624547716	       -1.0121844637	        0.0686987779	        0.0934692733	        0.1404045632	       -4.9561789015	        0.4346814313	       -0.3212050984	       -2.1044932028	        0.0007483552	       -0.1241694862	        0.1673235630	
